<?xml version="1.0" encoding="UTF-8" standalone="no"?>
<!DOCTYPE svg PUBLIC "-//W3C//DTD SVG 1.1//EN" "http://www.w3.org/Graphics/SVG/1.1/DTD/svg11.dtd">
<svg width="100%" height="100%" viewBox="0 0 653 1063" version="1.1" xmlns="http://www.w3.org/2000/svg" xmlns:xlink="http://www.w3.org/1999/xlink" xml:space="preserve" xmlns:serif="http://www.serif.com/" style="fill-rule:evenodd;clip-rule:evenodd;stroke-linejoin:round;stroke-miterlimit:2;">
    <g transform="matrix(1,0,0,1,223.135,163.969)">
        <g transform="matrix(1,0,0,1,-297.855,-164)">
            <g transform="matrix(1,0,0,1,-849.263,0.0312411)">
                <path d="M923.983,541.032L1250.06,733.681L1250.06,0L923.983,541.032Z" style="fill:white;fill-rule:nonzero;"/>
            </g>
            <g transform="matrix(1,0,0,1,-849.263,0.0312411)">
                <path d="M1250.06,0L1250.06,733.682L1576.02,541.033L1250.06,0Z" style="fill:rgb(234,234,234);fill-rule:nonzero;"/>
            </g>
            <g transform="matrix(1,0,0,1,-849.263,0.0312411)">
                <path d="M923.983,602.813L1250.06,1062.2L1250.06,795.463L923.983,602.813Z" style="fill:white;fill-rule:nonzero;"/>
            </g>
            <g transform="matrix(1,0,0,1,-849.263,0.0312411)">
                <path d="M1250.06,795.463L1250.06,1062.2L1576.27,602.813L1250.06,795.463Z" style="fill:rgb(208,208,208);fill-rule:nonzero;"/>
            </g>
            <g transform="matrix(1,0,0,1,-849.263,0.0312411)">
                <path d="M1250.06,392.732L923.983,541.032L1250.06,733.681L1576.02,541.032L1250.06,392.732Z" style="fill-opacity:0.1;fill-rule:nonzero;"/>
            </g>
        </g>
    </g>
</svg>
