<?xml version="1.0" encoding="UTF-8" standalone="no"?>
<!DOCTYPE svg PUBLIC "-//W3C//DTD SVG 1.1//EN" "http://www.w3.org/Graphics/SVG/1.1/DTD/svg11.dtd">
<svg width="100%" height="100%" viewBox="0 0 2129 2084" version="1.1" xmlns="http://www.w3.org/2000/svg" xmlns:xlink="http://www.w3.org/1999/xlink" xml:space="preserve" style="fill-rule:evenodd;clip-rule:evenodd;stroke-linejoin:round;stroke-miterlimit:2;">
    <g transform="matrix(1,0,0,1,-1019,-1041)">
        <g transform="matrix(-4.16667,0,0,4.16667,4166.67,0)">
            <path d="M551.829,565.012C553.791,552.972 553.868,544.958 553.866,543.993C553.856,537.601 548.669,532.438 542.276,532.432L542.271,532.432C535.878,532.432 530.692,537.619 530.676,544.01C530.676,544.649 529.928,608.221 480.233,651.524C441.666,685.132 384.18,698.403 309.206,691.055C324.062,663.594 350.962,602.78 350.962,522.479C350.962,516.075 345.77,510.883 339.367,510.883C332.963,510.883 327.771,516.075 327.771,522.479C327.771,529.701 327.477,536.714 327.033,543.601C290.075,530.923 267.857,513.951 267.857,494.667C267.857,304.423 365.479,277.585 393.754,273.809C395.634,279.368 396.614,285.273 396.609,291.218C396.609,306.76 389.689,321.669 377.624,332.114C375.081,334.316 373.62,337.515 373.62,340.879C373.62,344.241 375.081,347.44 377.624,349.643C389.694,360.095 396.614,374.997 396.609,390.539C396.609,396.654 395.628,402.559 393.698,408.159C375.97,406.217 359.755,397.39 348.397,383.28C344.383,378.275 337.073,377.488 332.096,381.52C327.108,385.535 326.316,392.833 330.336,397.82C347.695,419.387 373.513,431.759 401.166,431.759C405.532,431.759 409.523,429.307 411.498,425.416C415.188,418.167 417.59,410.256 418.819,402.134L639.491,402.134C690.579,402.134 732.143,443.642 732.143,494.667C732.143,530.206 657.452,558.06 551.829,565.012ZM639.491,378.943L418.762,378.943C416.597,364.986 410.706,351.802 401.471,340.879C413.231,326.969 419.799,309.421 419.799,291.224C419.805,279.091 416.934,267.026 411.498,256.341C409.523,252.452 405.532,250 401.166,250C399.603,250 244.666,252.798 244.666,494.667C244.666,545.047 259.251,593.613 286.808,635.088C291.197,641.758 295.982,648.058 300.93,654.196C290.419,679.166 280.775,693.642 280.562,693.953C278.297,697.271 277.906,701.534 279.544,705.21C281.18,708.879 284.594,711.448 288.573,711.992C309.369,714.8 329.038,716.205 347.605,716.205C355.828,716.205 363.801,715.891 371.581,715.339C409.935,737.695 454.025,750 499.999,750C586.151,750 665.847,707.043 713.158,635.133C740.749,593.62 755.334,545.047 755.334,494.667C755.334,430.857 703.37,378.943 639.491,378.943Z" style="fill:currentColor;fill-rule:nonzero;"/>
            <path d="M624.216,443.942C597.389,443.942 575.57,465.763 575.57,492.588C575.57,498.992 580.762,504.184 587.165,504.184C593.568,504.184 598.76,498.992 598.76,492.588C598.76,478.554 610.18,467.133 624.216,467.133C638.256,467.133 649.678,478.554 649.678,492.588C649.678,498.992 654.87,504.184 661.273,504.184C667.677,504.184 672.869,498.992 672.869,492.588C672.869,465.763 651.042,443.942 624.216,443.942Z" style="fill:currentColor;fill-rule:nonzero;"/>
        </g>
    </g>
</svg>
