<?xml version="1.0" encoding="UTF-8" standalone="no"?>
<!DOCTYPE svg PUBLIC "-//W3C//DTD SVG 1.1//EN" "http://www.w3.org/Graphics/SVG/1.1/DTD/svg11.dtd">
<svg width="100%" height="100%" viewBox="0 0 500 500" version="1.1" xmlns="http://www.w3.org/2000/svg" xmlns:xlink="http://www.w3.org/1999/xlink" xml:space="preserve"  style="fill-rule:evenodd;clip-rule:evenodd;stroke-linejoin:round;stroke-miterlimit:2;">
    <g id="Artboard1" transform="matrix(1.75956,0,0,2.06531,-397.729,-244.197)">
        <rect x="226.039" y="118.237" width="284.162" height="242.094" style="fill:none;"/>
        <clipPath id="_clip1">
            <rect x="226.039" y="118.237" width="284.162" height="242.094"/>
        </clipPath>
        <g clip-path="url(#_clip1)">
            <g transform="matrix(0.568324,0,0,0.484188,226.039,118.237)">
                <path fill="currentColor" d="M250,0C387.979,0 500,112.021 500,250C500,387.979 387.979,500 250,500C112.021,500 -0,387.979 -0,250C-0,112.021 112.021,0 250,0ZM113.035,329.608C99.764,315.143 89.902,297.339 85.092,276.026C84.192,272.046 83.521,268.129 83.065,264.275C88.294,260.691 94.249,258.432 100.237,256.173C106.273,253.903 113.029,252.38 119.425,251.743C127.095,251.023 134.792,251.826 142.213,253.681C147.861,255.093 153.371,257.059 158.743,259.274C177.986,267.165 195.873,276.884 216.971,278.878C221.263,279.265 225.555,279.431 229.846,279.376C235.329,279.293 240.783,278.047 245.573,275.333C247.484,274.254 249.699,272.897 251.194,271.263C252.163,270.183 253.603,268.716 252.772,267.193C251.803,265.449 249.505,266.916 248.342,267.636C238.928,273.34 227.41,270.682 217.663,267.276C209.855,264.563 202.767,260.133 195.983,255.481C190.473,251.715 185.102,247.756 179.537,244.046C172.947,239.643 165.997,235.739 158.632,232.693C153.094,230.423 146.92,228.817 141.022,227.82C132.909,226.436 124.658,226.491 116.518,227.626C103.285,229.444 90.35,235.526 82.502,246.446C85.671,191.549 134.818,154.131 192.024,151.151C207.972,150.321 224.004,152.065 239.177,157.132C254.184,162.171 267.807,170.312 280.488,179.643C292.643,188.558 304.023,198.471 316.234,207.303C322.27,211.678 328.5,215.776 335.062,219.292C342.704,223.39 349.432,226.187 357.96,222.864C360.757,221.756 363.332,220.178 365.547,218.129C371.887,212.259 374.324,203.288 373.909,194.871C373.798,192.601 373.493,190.275 373.023,188.06C372.469,185.651 371.389,181.581 369.562,179.836C365.685,176.071 359.206,179.338 355.025,180.584C352.339,181.387 349.654,182.328 346.857,182.522C337.72,183.242 327.863,179.504 321.412,172.997C319.224,170.838 315.819,166.463 316.455,163.14C317.175,159.375 322.464,161.479 324.956,161.008C327.198,160.565 329.137,159.845 331.13,158.71C335.643,156.163 339.741,152.979 344.808,151.539C351.26,149.684 357.988,150.93 363.996,153.643C364.522,153.865 365.048,154.114 365.574,154.391C366.931,155.083 368.288,156.523 369.811,156.827C371.887,157.27 371.832,155.111 371.943,153.532C372.081,151.345 372.054,148.881 372.635,146.776C373.964,141.903 377.425,137.252 381.994,135.037C387.254,132.517 393.346,133.154 398.607,130.551C400.074,129.803 401.652,128.945 402.926,127.865C404.172,126.813 405.28,125.484 406.304,124.238C406.996,123.38 407.633,122.162 408.741,121.774C409.239,121.58 409.654,121.58 410.042,121.968C413.143,125.069 414.417,130.025 415.137,134.178C415.857,138.498 416.41,143.066 414.971,147.275C414.168,149.545 412.783,151.899 411.177,153.671C409.267,155.747 406.775,157.99 404.283,159.347C399.908,161.728 394.813,162.808 391.159,166.407C387.421,170.09 390.023,174.465 392.986,177.649C397.084,182.024 401.071,186.343 404.089,191.548C413.309,207.303 415.524,230.201 414.998,241.914C414.86,245.264 414.527,248.586 414.029,251.881C412.534,261.932 409.793,271.789 406.055,281.203C404.366,285.467 402.4,289.648 400.213,293.663C395.672,301.997 389.996,310.11 383.683,317.226C381.069,320.179 378.3,323.156 375.41,326.073C381.028,328.568 386.878,330.68 392.958,332.538C399.05,334.42 433.356,339.294 424.717,348.901C413.78,361.057 389.054,363.742 374.047,362.69C362.509,361.878 351.554,358.082 342.498,351.45C334.225,356.273 325.487,360.539 316.76,363.798C299.012,370.388 279.27,375.095 260.442,377.171C243.22,379.026 225.278,378.722 207.668,376.091C181.884,372.24 156.842,363.419 135.975,349.281C123.705,363.769 102.643,369.747 83.929,363.438C78.557,361.638 69.448,357.402 76.425,351.393C87.163,342.183 101.036,337.384 113.035,329.608ZM245.739,245.209C245.075,245.541 244.41,245.818 243.69,246.067C239.233,247.479 233.723,245.236 230.511,240.723C225.25,233.33 227.631,223.473 234.332,220.76C241.309,217.963 250.003,222.089 252.135,231.06C253.769,237.788 250.474,242.8 245.739,245.209Z"/>
            </g>
        </g>
    </g>
</svg>
