<?xml version="1.0" encoding="UTF-8" standalone="no"?>
<!DOCTYPE svg PUBLIC "-//W3C//DTD SVG 1.1//EN" "http://www.w3.org/Graphics/SVG/1.1/DTD/svg11.dtd">
<svg width="100%" height="100%" viewBox="0 0 2941 626" version="1.1" xmlns="http://www.w3.org/2000/svg" xmlns:xlink="http://www.w3.org/1999/xlink" xml:space="preserve" style="fill-rule:evenodd;clip-rule:evenodd;stroke-linejoin:round;stroke-miterlimit:2;">
    <g transform="matrix(1,0,0,1,-416,-416)">
        <g transform="matrix(4.16667,0,0,4.16667,0,0)">
            <path d="M192.148,194.504C192.737,190.892 192.761,188.487 192.76,188.198C192.757,186.28 191.201,184.731 189.283,184.73L189.281,184.73C187.364,184.73 185.808,186.286 185.803,188.203C185.803,188.395 185.579,207.466 170.67,220.457C159.1,230.54 141.854,234.521 119.362,232.317C123.818,224.078 131.889,205.834 131.889,181.743C131.889,179.822 130.33,178.265 128.41,178.265C126.489,178.265 124.932,179.822 124.932,181.743C124.932,183.91 124.843,186.014 124.71,188.08C113.623,184.277 106.957,179.185 106.957,173.4C106.957,116.327 136.244,108.276 144.726,107.143C145.29,108.81 145.584,110.582 145.583,112.365C145.583,117.028 143.507,121.501 139.887,124.634C139.125,125.295 138.686,126.255 138.686,127.264C138.686,128.272 139.125,129.232 139.887,129.893C143.508,133.028 145.584,137.499 145.583,142.162C145.583,143.996 145.289,145.768 144.709,147.448C139.391,146.865 134.526,144.217 131.119,139.984C129.914,138.482 127.722,138.246 126.229,139.456C124.732,140.66 124.495,142.85 125.701,144.346C130.909,150.816 138.654,154.528 146.95,154.528C148.26,154.528 149.457,153.792 150.049,152.625C151.156,150.45 151.877,148.077 152.246,145.64L218.447,145.64C233.773,145.64 246.243,158.093 246.243,173.4C246.243,184.062 223.836,192.418 192.148,194.504ZM218.447,138.683L152.229,138.683C151.579,134.496 149.812,130.541 147.042,127.264C150.569,123.091 152.54,117.826 152.54,112.367C152.542,108.727 151.68,105.108 150.049,101.902C149.457,100.736 148.26,100 146.95,100C146.481,100 100,100.839 100,173.4C100,188.514 104.375,203.084 112.642,215.526C113.959,217.527 115.395,219.417 116.879,221.259C113.726,228.75 110.833,233.092 110.769,233.186C110.089,234.181 109.972,235.46 110.463,236.563C110.954,237.664 111.979,238.435 113.172,238.597C119.411,239.44 125.312,239.862 130.882,239.862C133.348,239.862 135.74,239.767 138.074,239.602C149.581,246.308 162.808,250 176.6,250C202.445,250 226.354,237.113 240.547,215.54C248.825,203.086 253.2,188.514 253.2,173.4C253.2,154.257 237.611,138.683 218.447,138.683Z" style="fill:rgb(71,186,230);fill-rule:nonzero;"/>
            <path d="M213.865,158.183C205.817,158.183 199.271,164.729 199.271,172.777C199.271,174.698 200.829,176.255 202.75,176.255C204.67,176.255 206.228,174.698 206.228,172.777C206.228,168.566 209.654,165.14 213.865,165.14C218.077,165.14 221.503,168.566 221.503,172.777C221.503,174.698 223.061,176.255 224.982,176.255C226.903,176.255 228.46,174.698 228.46,172.777C228.46,164.729 221.913,158.183 213.865,158.183Z" style="fill:rgb(71,186,230);fill-rule:nonzero;"/>
            <path d="M718.208,170.025C711.036,170.025 705.354,174.783 703.377,182.442L703.154,183.307L731.643,183.307L731.631,182.604C731.511,175.198 725.992,170.025 718.208,170.025ZM720.228,218.694C702.239,218.694 688.674,205.741 688.674,188.564C688.674,171.669 701.908,158.434 718.804,158.434C734.468,158.434 745.838,169.655 745.838,185.115C745.838,188.482 745.227,191.746 744.906,193.226L707.338,193.226C706.109,193.226 705.427,193.731 705.071,194.154C704.55,194.774 704.366,195.626 704.538,196.616C705.691,202.934 711.283,206.271 720.708,206.271C726.605,206.271 731.78,204.479 736.934,200.644L742.89,210.427C736.167,215.913 728.546,218.694 720.228,218.694Z" style="fill:rgb(71,186,230);fill-rule:nonzero;"/>
            <path d="M541.13,170.025C533.959,170.025 528.276,174.783 526.3,182.442L526.077,183.307L554.565,183.307L554.554,182.604C554.434,175.198 548.914,170.025 541.13,170.025ZM543.15,218.694C525.162,218.694 511.597,205.741 511.597,188.564C511.597,171.669 524.831,158.434 541.726,158.434C557.391,158.434 568.76,169.655 568.76,185.115C568.76,188.484 568.149,191.747 567.828,193.226L530.26,193.226C529.032,193.226 528.35,193.731 527.994,194.154C527.473,194.774 527.289,195.626 527.461,196.616C528.614,202.934 534.205,206.271 543.63,206.271C549.527,206.271 554.703,204.479 559.856,200.644L565.813,210.427C559.089,215.913 551.468,218.694 543.15,218.694Z" style="fill:rgb(71,186,230);fill-rule:nonzero;"/>
            <path d="M338.877,218.694C326.397,218.694 315.438,212.54 309.437,202.2L319.455,194.656C323.373,199.965 329.117,205.796 338.877,205.796C346.204,205.796 350.755,202.202 350.755,196.417C350.755,190.835 346.619,188.925 340.359,186.032L331.904,182.222C318.845,176.249 313.272,169.676 313.272,160.243C313.272,147.548 323.704,138.683 338.64,138.683C349.536,138.683 358.631,143.776 363.689,152.68L353.792,160.318C349.676,154.438 344.713,151.576 338.64,151.576C332.292,151.576 328.191,154.837 328.191,159.884C328.191,164.809 331.978,166.912 337.755,169.558L346.694,173.491C360.174,179.456 365.674,185.926 365.674,195.822C365.674,209.502 354.905,218.694 338.877,218.694Z" style="fill:rgb(71,186,230);fill-rule:nonzero;"/>
            <path d="M403.561,218.694C387.923,218.694 377.001,207.723 377.001,192.014L377.001,159.747L391.683,159.747L391.683,193.326C391.683,200.389 396.567,205.321 403.561,205.321C410.303,205.321 415.196,200.276 415.196,193.326L415.196,159.747L429.878,159.747L429.878,192.014C429.878,207.723 419.056,218.694 403.561,218.694Z" style="fill:rgb(71,186,230);fill-rule:nonzero;"/>
            <path d="M652.83,218.694C640.35,218.694 629.391,212.54 623.39,202.2L633.408,194.656C637.325,199.965 643.07,205.796 652.83,205.796C660.156,205.796 664.708,202.202 664.708,196.417C664.708,190.835 660.572,188.925 654.312,186.032L645.857,182.222C632.798,176.249 627.225,169.676 627.225,160.243C627.225,147.548 637.656,138.683 652.593,138.683C663.488,138.683 672.583,143.776 677.642,152.68L667.744,160.318C663.629,154.438 658.667,151.576 652.593,151.576C646.245,151.576 642.144,154.837 642.144,159.884C642.144,164.809 645.931,166.912 651.708,169.558L660.646,173.491C674.127,179.456 679.626,185.926 679.626,195.822C679.626,209.502 668.857,218.694 652.83,218.694Z" style="fill:rgb(71,186,230);fill-rule:nonzero;"/>
            <path d="M579.541,217.265L579.541,159.747L592.909,159.747L592.909,163.887C592.909,164.411 593.126,164.731 593.308,164.907C593.559,165.15 593.898,165.278 594.291,165.278C594.914,165.278 595.637,164.955 596.328,164.37C600.051,160.868 604.696,159.03 609.787,159.03C611.553,159.03 612.945,159.195 614.333,159.574L614.333,172.525L610.736,172.525C600.241,172.525 594.222,178.371 594.222,188.564L594.222,217.265L579.541,217.265Z" style="fill:rgb(71,186,230);fill-rule:nonzero;"/>
            <path d="M471.983,171.57C464.236,171.57 456.419,176.789 456.419,188.448C456.419,200.187 464.236,205.442 471.983,205.442C481.21,205.442 487.907,198.344 487.907,188.564C487.907,178.717 481.21,171.57 471.983,171.57ZM441.975,238.683L441.975,159.747L455.343,159.747L455.343,164.023C455.343,164.438 455.525,164.796 455.855,165.032C456.111,165.214 456.444,165.31 456.818,165.31C457.499,165.31 458.249,165.001 458.823,164.483C462.901,160.52 468.474,158.434 474.958,158.434C491.105,158.434 502.826,171.057 502.826,188.448C502.826,205.974 491.105,218.694 474.958,218.694C469.267,218.694 464.115,216.96 460.06,213.68C459.328,213.083 458.618,212.767 458.01,212.767C457.2,212.767 456.656,213.332 456.656,214.173L456.656,238.683L441.975,238.683Z" style="fill:rgb(71,186,230);fill-rule:nonzero;"/>
            <path d="M777.632,194.539C771.89,194.539 768.728,196.897 768.728,201.18C768.728,205.502 772.316,208.295 777.869,208.295C785.317,208.295 790.934,202.985 790.934,195.943L790.934,194.539L777.632,194.539ZM773.582,218.694C761.825,218.694 753.926,211.893 753.926,201.771C753.926,191.631 762.187,185.332 775.486,185.332L785.942,185.332C789.021,185.332 790.934,183.628 790.934,180.884C790.934,174.216 787.126,170.975 779.293,170.975C772.77,170.975 768.306,174.05 763.742,178.725L756.282,169.886C762.941,162.181 771.059,158.434 781.081,158.434C796.673,158.434 805.615,167.379 805.615,182.973L805.615,217.265L792.242,217.265L792.242,214.152C792.242,213.32 791.708,212.762 790.913,212.762C790.177,212.762 789.379,213.243 788.839,213.646C784.68,216.953 779.41,218.694 773.582,218.694Z" style="fill:rgb(71,186,230);fill-rule:nonzero;"/>
        </g>
    </g>
</svg>
